<svg xmlns="http://www.w3.org/2000/svg" xmlns:xlink="http://www.w3.org/1999/xlink" width="500" zoomAndPan="magnify" viewBox="0 0 375 374.999991" height="500" preserveAspectRatio="xMidYMid meet" version="1.0"><defs><clipPath id="ac1af657d4"><path d="M 99 49 L 366.421875 49 L 366.421875 322 L 99 322 Z M 99 49 " clip-rule="nonzero"/></clipPath><clipPath id="e1a8a2a6ef"><path d="M 8.671875 0 L 266 0 L 266 288 L 8.671875 288 Z M 8.671875 0 " clip-rule="nonzero"/></clipPath></defs><path fill="#8a3aff" d="M 261.746094 142.226562 L 183.84375 297.910156 L 96.902344 295.59375 L 26.183594 181.136719 L 25.460938 188.554688 L 19.871094 264.316406 L 143.480469 369.730469 L 200.125 374.769531 L 200.253906 374.78125 L 200.320312 374.746094 L 240.261719 353.902344 L 279.976562 140.882812 Z M 261.746094 142.226562 " fill-opacity="1" fill-rule="nonzero"/><g clip-path="url(#ac1af657d4)"><path fill="#8a3aff" d="M 342.503906 73.882812 L 342.4375 73.753906 L 342.386719 73.710938 L 304.359375 49.5625 L 99.972656 121.695312 L 110.246094 136.800781 L 284.058594 126.402344 L 325.519531 202.84375 L 261.746094 321.292969 L 268.53125 318.214844 L 336.945312 285.171875 L 366.464844 125.433594 Z M 342.503906 73.882812 " fill-opacity="1" fill-rule="nonzero"/></g><g clip-path="url(#e1a8a2a6ef)"><path fill="#8a3aff" d="M 181.300781 270.679688 L 85.390625 125.390625 L 130.867188 51.273438 L 265.375 47.269531 L 259.3125 42.941406 L 196.472656 0.21875 L 43.347656 54.535156 L 10.675781 101.058594 L 10.589844 101.164062 L 10.578125 101.230469 L 8.671875 146.242188 L 173.351562 287.132812 Z M 181.300781 270.679688 " fill-opacity="1" fill-rule="nonzero"/></g></svg>